{
    "asset": {
        "generator": "COLLADA2GLTF",
        "version": "2.0"
    },
    "scene": 0,
    "scenes": [
        {
            "nodes": [
                0
            ]
        }
    ],
    "nodes": [
        {
            "children": [
                3,
                2,
                1
            ],
            "matrix": [
                1.0,
                0.0,
                0.0,
                0.0,
                0.0,
                0.0,
                -1.0,
                0.0,
                0.0,
                1.0,
                0.0,
                0.0,
                0.0,
                0.0,
                0.0,
                1.0
            ]
        },
        {
            "mesh": 0,
            "matrix": [
                0.1635226011276245,
                0.0,
                0.0,
                0.0,
                0.0,
                -7.147800129558845e-9,
                0.1635226011276245,
                0.0,
                0.0,
                -0.1635226011276245,
                -7.147800129558845e-9,
                0.0,
                -0.0729818269610405,
                0.5019255876541138,
                -3.34448790550232,
                1.0
            ]
        },
        {
            "mesh": 1,
            "matrix": [
                0.1635226011276245,
                0.0,
                0.0,
                0.0,
                0.0,
                -7.147800129558845e-9,
                0.1635226011276245,
                0.0,
                0.0,
                -0.1635226011276245,
                -7.147800129558845e-9,
                0.0,
                -0.0729818269610405,
                0.5019255876541138,
                -3.34448790550232,
                1.0
            ]
        },
        {
            "matrix": [
                0.6859207153320313,
                0.727676272392273,
                0.0,
                0.0,
                -0.32401350140571597,
                0.3054207861423493,
                0.8953955769538879,
                0.0,
                0.6515582203865051,
                -0.6141703724861145,
                0.44527140259742739,
                0.0,
                7.943219184875488,
                -8.271652221679688,
                4.456851005554199,
                1.0
            ],
            "camera": 0
        }
    ],
    "cameras": [
        {
            "perspective": {
                "yfov": 0.4823747575283051,
                "zfar": 100.0,
                "znear": 0.10000000149011612
            },
            "type": "perspective"
        }
    ],
    "meshes": [
        {
            "primitives": [
                {
                    "attributes": {
                        "NORMAL": 1,
                        "POSITION": 2,
                        "TEXCOORD_0": 3
                    },
                    "indices": 0,
                    "mode": 4,
                    "material": 0
                },
                {
                    "attributes": {
                        "NORMAL": 5,
                        "POSITION": 6
                    },
                    "indices": 4,
                    "mode": 4,
                    "material": 1
                },
                {
                    "attributes": {
                        "NORMAL": 8,
                        "POSITION": 9
                    },
                    "indices": 7,
                    "mode": 4,
                    "material": 2
                },
                {
                    "attributes": {
                        "NORMAL": 11,
                        "POSITION": 12
                    },
                    "indices": 10,
                    "mode": 4,
                    "material": 3
                },
                {
                    "attributes": {
                        "NORMAL": 14,
                        "POSITION": 15
                    },
                    "indices": 13,
                    "mode": 4,
                    "material": 4
                }
            ],
            "name": "Object001"
        },
        {
            "primitives": [
                {
                    "attributes": {
                        "NORMAL": 17,
                        "POSITION": 18,
                        "TEXCOORD_0": 19
                    },
                    "indices": 16,
                    "mode": 4,
                    "material": 5
                },
                {
                    "attributes": {
                        "NORMAL": 21,
                        "POSITION": 22
                    },
                    "indices": 20,
                    "mode": 4,
                    "material": 6
                },
                {
                    "attributes": {
                        "NORMAL": 24,
                        "POSITION": 25
                    },
                    "indices": 23,
                    "mode": 4,
                    "material": 7
                },
                {
                    "attributes": {
                        "NORMAL": 27,
                        "POSITION": 28,
                        "TEXCOORD_0": 29
                    },
                    "indices": 26,
                    "mode": 4,
                    "material": 8
                }
            ],
            "name": "Box006"
        }
    ],
    "accessors": [
        {
            "bufferView": 0,
            "byteOffset": 0,
            "componentType": 5123,
            "count": 108,
            "max": [
                87
            ],
            "min": [
                0
            ],
            "type": "SCALAR"
        },
        {
            "bufferView": 1,
            "byteOffset": 0,
            "componentType": 5126,
            "count": 88,
            "max": [
                0.9994317889213562,
                1.0,
                0.9994313716888428
            ],
            "min": [
                -0.9994347095489502,
                -1.0,
                -0.9994341135025024
            ],
            "type": "VEC3"
        },
        {
            "bufferView": 1,
            "byteOffset": 1056,
            "componentType": 5126,
            "count": 88,
            "max": [
                3.3891000747680666,
                15.63510036468506,
                4.053699970245361
            ],
            "min": [
                -3.3612000942230226,
                5.4807000160217289,
                -4.314300060272217
            ],
            "type": "VEC3"
        },
        {
            "bufferView": 2,
            "byteOffset": 0,
            "componentType": 5126,
            "count": 88,
            "max": [
                0.9994999766349793,
                1.7913999557495118
            ],
            "min": [
                0.0005000000237487257,
                0.000500023365020752
            ],
            "type": "VEC2"
        },
        {
            "bufferView": 0,
            "byteOffset": 216,
            "componentType": 5123,
            "count": 60,
            "max": [
                43
            ],
            "min": [
                0
            ],
            "type": "SCALAR"
        },
        {
            "bufferView": 1,
            "byteOffset": 2112,
            "componentType": 5126,
            "count": 44,
            "max": [
                0.9994329810142516,
                1.0,
                0.9994342923164368
            ],
            "min": [
                -0.9994307160377502,
                -1.0,
                -0.999431014060974
            ],
            "type": "VEC3"
        },
        {
            "bufferView": 1,
            "byteOffset": 2640,
            "componentType": 5126,
            "count": 44,
            "max": [
                3.802000045776367,
                11.98550033569336,
                1.264299988746643
            ],
            "min": [
                -0.8963000178337097,
                4.462699890136719,
                -1.3131999969482422
            ],
            "type": "VEC3"
        },
        {
            "bufferView": 0,
            "byteOffset": 336,
            "componentType": 5123,
            "count": 30,
            "max": [
                21
            ],
            "min": [
                0
            ],
            "type": "SCALAR"
        },
        {
            "bufferView": 1,
            "byteOffset": 3168,
            "componentType": 5126,
            "count": 22,
            "max": [
                0.9994320273399352,
                1.0,
                0.9994342923164368
            ],
            "min": [
                -0.03363506868481636,
                -1.0,
                -0.9994342923164368
            ],
            "type": "VEC3"
        },
        {
            "bufferView": 1,
            "byteOffset": 3432,
            "componentType": 5126,
            "count": 22,
            "max": [
                3.832200050354004,
                12.961099624633788,
                1.1259000301361085
            ],
            "min": [
                3.2056000232696539,
                12.20680046081543,
                -1.4366999864578248
            ],
            "type": "VEC3"
        },
        {
            "bufferView": 0,
            "byteOffset": 396,
            "componentType": 5123,
            "count": 3696,
            "max": [
                875
            ],
            "min": [
                0
            ],
            "type": "SCALAR"
        },
        {
            "bufferView": 1,
            "byteOffset": 3696,
            "componentType": 5126,
            "count": 876,
            "max": [
                0.9994328022003174,
                1.0,
                0.9994344115257264
            ],
            "min": [
                -0.9994421005249025,
                -1.0,
                -0.9994345903396606
            ],
            "type": "VEC3"
        },
        {
            "bufferView": 1,
            "byteOffset": 14208,
            "componentType": 5126,
            "count": 876,
            "max": [
                3.6084001064300539,
                6.564000129699707,
                11.65999984741211
            ],
            "min": [
                -4.659200191497803,
                -3.169300079345703,
                -11.972999572753908
            ],
            "type": "VEC3"
        },
        {
            "bufferView": 0,
            "byteOffset": 7788,
            "componentType": 5123,
            "count": 79104,
            "max": [
                13277
            ],
            "min": [
                0
            ],
            "type": "SCALAR"
        },
        {
            "bufferView": 1,
            "byteOffset": 24720,
            "componentType": 5126,
            "count": 13278,
            "max": [
                0.9999045729637146,
                0.9995915293693544,
                0.9895637035369872
            ],
            "min": [
                -0.999898374080658,
                -0.9999986290931702,
                -0.989691197872162
            ],
            "type": "VEC3"
        },
        {
            "bufferView": 1,
            "byteOffset": 184056,
            "componentType": 5126,
            "count": 13278,
            "max": [
                -1.1967999935150149,
                9.101099967956545,
                11.417799949645996
            ],
            "min": [
                -6.57859992980957,
                3.6108999252319338,
                -11.175700187683106
            ],
            "type": "VEC3"
        },
        {
            "bufferView": 0,
            "byteOffset": 165996,
            "componentType": 5123,
            "count": 8640,
            "max": [
                6394
            ],
            "min": [
                0
            ],
            "type": "SCALAR"
        },
        {
            "bufferView": 1,
            "byteOffset": 343392,
            "componentType": 5126,
            "count": 6395,
            "max": [
                0.9994398951530457,
                1.0,
                0.9994338750839232
            ],
            "min": [
                -0.9994398951530457,
                -1.0,
                -0.9994331002235412
            ],
            "type": "VEC3"
        },
        {
            "bufferView": 1,
            "byteOffset": 420132,
            "componentType": 5126,
            "count": 6395,
            "max": [
                5.373899936676025,
                28.935699462890626,
                5.325300216674805
            ],
            "min": [
                -5.423900127410889,
                15.394399642944336,
                -5.440100193023682
            ],
            "type": "VEC3"
        },
        {
            "bufferView": 2,
            "byteOffset": 704,
            "componentType": 5126,
            "count": 6395,
            "max": [
                0.9994999766349793,
                1.7913999557495118
            ],
            "min": [
                0.0005000000237487257,
                -0.012599945068359377
            ],
            "type": "VEC2"
        },
        {
            "bufferView": 0,
            "byteOffset": 183276,
            "componentType": 5123,
            "count": 4512,
            "max": [
                869
            ],
            "min": [
                0
            ],
            "type": "SCALAR"
        },
        {
            "bufferView": 1,
            "byteOffset": 496872,
            "componentType": 5126,
            "count": 870,
            "max": [
                0.9994599223136902,
                0.9848402738571168,
                0.9994984269142152
            ],
            "min": [
                -0.99946528673172,
                -0.984858512878418,
                -0.9994655251502992
            ],
            "type": "VEC3"
        },
        {
            "bufferView": 1,
            "byteOffset": 507312,
            "componentType": 5126,
            "count": 870,
            "max": [
                5.604000091552734,
                26.4325008392334,
                5.553400039672852
            ],
            "min": [
                -2.900700092315674,
                24.495800018310548,
                2.4614999294281008
            ],
            "type": "VEC3"
        },
        {
            "bufferView": 0,
            "byteOffset": 192300,
            "componentType": 5123,
            "count": 2256,
            "max": [
                434
            ],
            "min": [
                0
            ],
            "type": "SCALAR"
        },
        {
            "bufferView": 1,
            "byteOffset": 517752,
            "componentType": 5126,
            "count": 435,
            "max": [
                0.9994655251502992,
                0.9848580956459044,
                0.9994639754295348
            ],
            "min": [
                -0.9994450211524965,
                -0.984850823879242,
                -0.9994657039642334
            ],
            "type": "VEC3"
        },
        {
            "bufferView": 1,
            "byteOffset": 522972,
            "componentType": 5126,
            "count": 435,
            "max": [
                5.565700054168701,
                19.502199172973634,
                2.135499954223633
            ],
            "min": [
                5.019199848175049,
                17.835899353027345,
                0.4278999865055084
            ],
            "type": "VEC3"
        },
        {
            "bufferView": 0,
            "byteOffset": 196812,
            "componentType": 5123,
            "count": 1728,
            "max": [
                539
            ],
            "min": [
                0
            ],
            "type": "SCALAR"
        },
        {
            "bufferView": 1,
            "byteOffset": 528192,
            "componentType": 5126,
            "count": 540,
            "max": [
                0.9994328022003174,
                1.0,
                0.9994328022003174
            ],
            "min": [
                -0.9994328022003174,
                -1.0,
                -0.9994328022003174
            ],
            "type": "VEC3"
        },
        {
            "bufferView": 1,
            "byteOffset": 534672,
            "componentType": 5126,
            "count": 540,
            "max": [
                6.285699844360352,
                16.67060089111328,
                38.328399658203128
            ],
            "min": [
                -6.285399913787842,
                16.305700302124025,
                -38.40190124511719
            ],
            "type": "VEC3"
        },
        {
            "bufferView": 2,
            "byteOffset": 51864,
            "componentType": 5126,
            "count": 540,
            "max": [
                1.0,
                1.0
            ],
            "min": [
                0.0,
                0.0
            ],
            "type": "VEC2"
        }
    ],
    "materials": [
        {
            "pbrMetallicRoughness": {
                "baseColorTexture": {
                    "index": 0
                },
                "metallicFactor": 0.0
            },
            "emissiveFactor": [
                0.0,
                0.0,
                0.0
            ],
            "occlusionTexture": {
                "index": 1
            },
            "name": "Material__90-effect"
        },
        {
            "pbrMetallicRoughness": {
                "baseColorFactor": [
                    0.17249999940395356,
                    0.6549000144004822,
                    0.8784000277519226,
                    1.0
                ],
                "metallicFactor": 0.0
            },
            "emissiveFactor": [
                0.0,
                0.0,
                0.0
            ],
            "name": "_1___Default-effect"
        },
        {
            "pbrMetallicRoughness": {
                "baseColorFactor": [
                    0.29409998655319216,
                    0.0,
                    0.0,
                    1.0
                ],
                "metallicFactor": 0.0
            },
            "emissiveFactor": [
                0.0,
                0.0,
                0.0
            ],
            "name": "_2___Default-effect"
        },
        {
            "pbrMetallicRoughness": {
                "baseColorFactor": [
                    0.20389999449253086,
                    0.20389999449253086,
                    0.20389999449253086,
                    1.0
                ],
                "metallicFactor": 0.0
            },
            "emissiveFactor": [
                0.0,
                0.0,
                0.0
            ],
            "name": "_4___Default-effect"
        },
        {
            "pbrMetallicRoughness": {
                "baseColorFactor": [
                    0.8549000024795532,
                    0.8549000024795532,
                    0.8549000024795532,
                    1.0
                ],
                "metallicFactor": 0.0
            },
            "emissiveFactor": [
                0.0,
                0.0,
                0.0
            ],
            "name": "_3___Default-effect"
        },
        {
            "pbrMetallicRoughness": {
                "baseColorTexture": {
                    "index": 0
                },
                "metallicFactor": 0.0
            },
            "emissiveFactor": [
                0.0,
                0.0,
                0.0
            ],
            "occlusionTexture": {
                "index": 1
            },
            "name": "Material__90-effect"
        },
        {
            "pbrMetallicRoughness": {
                "baseColorFactor": [
                    0.8549000024795532,
                    0.8549000024795532,
                    0.8549000024795532,
                    1.0
                ],
                "metallicFactor": 0.0
            },
            "emissiveFactor": [
                0.0,
                0.0,
                0.0
            ],
            "name": "_3___Default-effect"
        },
        {
            "pbrMetallicRoughness": {
                "baseColorFactor": [
                    0.17249999940395356,
                    0.6549000144004822,
                    0.8784000277519226,
                    1.0
                ],
                "metallicFactor": 0.0
            },
            "emissiveFactor": [
                0.0,
                0.0,
                0.0
            ],
            "name": "_1___Default-effect"
        },
        {
            "pbrMetallicRoughness": {
                "baseColorTexture": {
                    "index": 2
                },
                "metallicFactor": 0.0
            },
            "emissiveFactor": [
                0.0,
                0.0,
                0.0
            ],
            "occlusionTexture": {
                "index": 3
            },
            "name": "Material__78-effect"
        }
    ],
    "textures": [
        {
            "sampler": 0,
            "source": 0
        },
        {
            "sampler": 0,
            "source": 0
        },
        {
            "sampler": 0,
            "source": 1
        },
        {
            "sampler": 0,
            "source": 1
        }
    ],
    "images": [
        {
            "uri": "data:image/jpeg;base64,"
        },
        {
            "uri": "data:image/jpeg;base64,"
        }
    ],
    "samplers": [
        {
            "magFilter": 9729,
            "minFilter": 9986,
            "wrapS": 10497,
            "wrapT": 10497
        }
    ],
    "bufferViews": [
        {
            "buffer": 0,
            "byteOffset": 597336,
            "byteLength": 200268,
            "target": 34963
        },
        {
            "buffer": 0,
            "byteOffset": 0,
            "byteLength": 541152,
            "byteStride": 12,
            "target": 34962
        },
        {
            "buffer": 0,
            "byteOffset": 541152,
            "byteLength": 56184,
            "byteStride": 8,
            "target": 34962
        }
    ],
    "buffers": [
        {
            "byteLength": 797604,
            "uri": "data:application/octet-stream;base64,"
        }
    ]
}
